<svg viewBox="0 0 1920 1080" xmlns="http://www.w3.org/2000/svg"><title>Misen</title><g fill="#231f20"><path d="m828.31 442.77-67.04 156.03-67.04-156.03h-34.68v194.45h33.01v-119.13l52.2 119.12v.01h.01 33 .01l-.01-.01 52.21-119.12v119.13h33.02v-194.45z"/><path d="m961.25 442.77h33.01v194.46h-33.01z"/><path d="m1173.55 524.05-19.41-3.33c-21.37-3.32-32.19-12.2-32.19-26.35 0-13.31 11.65-24.68 33.85-24.68 19.42 0 36 8.59 50.2 25.52l23-24.42c-19.7-20.8-43.55-31.07-71.85-31.07-19.14 0-35.23 5-48.54 15.26s-20 23.58-20 40.23c0 31.33 21.37 51 58.26 57.69l23.58 3.88c21.35 3.6 31.89 13 31.89 27.74 0 15.25-13.31 25.8-36.89 25.8-28 0-44.93-11.38-59.09-30l-22.47 22.74c19.71 24.7 45.5 37.18 77.39 37.18 23 0 41.06-5.27 54.38-15.54q20-15.81 20-40.77c0-31.9-20.24-53.26-62.13-59.92"/><path d="m1329.14 442.77v194.46h136.75v-29.96h-103.75v-54.1h99.03v-30.22h-99.03v-50.22h103.75v-29.96z"/><path d="m1695.26 442.77v137.59l-96.53-137.59h-33.02v194.46h33.02v-137.04l96.53 137.04h33.28v-194.46z"/><path d="m224.9 573.43a33.43 33.43 0 1 0 33.43 33.42 33.43 33.43 0 0 0 -33.43-33.42"/><path d="m358.64 573.43a33.43 33.43 0 1 0 33.43 33.42 33.43 33.43 0 0 0 -33.43-33.42"/><path d="m291.77 439.72a33.43 33.43 0 1 0 33.43 33.43 33.44 33.44 0 0 0 -33.43-33.43"/><path d="m425.51 439.72a33.43 33.43 0 1 0 33.43 33.43 33.44 33.44 0 0 0 -33.43-33.43"/><path d="m492.38 573.43a33.43 33.43 0 1 0 33.43 33.42 33.43 33.43 0 0 0 -33.43-33.42"/></g></svg>
